<svg width="128" height="128" viewBox="0 0 128 128" fill="none" xmlns="http://www.w3.org/2000/svg">
  <path d="M64.0275 24L97.1791 86.3489C94.7977 89.8774 91.8683 93.0055 88.513 95.6111L64.0275 49.5607L39.526 95.6414C36.1689 93.0409 33.2368 89.918 30.8518 86.3945L64.0275 24Z" fill="black"/>
  <path fill-rule="evenodd" clip-rule="evenodd" d="M0 64C0 28.6538 28.6538 0 64 0C99.3462 0 128 28.6538 128 64C128 99.3462 99.3462 128 64 128C28.6538 128 0 99.3462 0 64ZM12 64C12 35.2812 35.2812 12 64 12C92.7188 12 116 35.2812 116 64C116 92.7188 92.7188 116 64 116C35.2812 116 12 92.7188 12 64Z" fill="black"/>
</svg>
