<svg id="logo" viewBox="0 0 256 256" xmlns="http://www.w3.org/2000/svg">
  <path d="M128.055 48L194.358 172.698C189.595 179.755 183.737 186.011 177.026 191.222L128.055 99.1213L79.052 191.283C72.3377 186.082 66.4736 179.836 61.7036 172.789L128.055 48Z"/>
  <path fill-rule="evenodd" clip-rule="evenodd" d="M0 128C0 57.3076 57.3076 0 128 0C198.692 0 256 57.3076 256 128C256 198.692 198.692 256 128 256C57.3076 256 0 198.692 0 128ZM24 128C24 70.5624 70.5624 24 128 24C185.438 24 232 70.5624 232 128C232 185.438 185.438 232 128 232C70.5624 232 24 185.438 24 128Z"/>
</svg>
